<svg width="369" height="94" viewBox="0 0 369 94" fill="none" xmlns="http://www.w3.org/2000/svg">
<path d="M25.1318 46.0059L17.96 53.875V73H0.478516V0.484375H17.96V32.459L24.0361 23.2451L39.6748 0.484375H61.29L36.7861 32.5586L61.29 73H40.5713L25.1318 46.0059ZM95.3066 73C94.709 71.9043 94.1777 70.2939 93.7129 68.1689C90.625 72.0537 86.3086 73.9961 80.7637 73.9961C75.6836 73.9961 71.3672 72.4688 67.8145 69.4141C64.2617 66.3262 62.4854 62.458 62.4854 57.8096C62.4854 51.9658 64.6436 47.5498 68.96 44.5615C73.2764 41.5732 79.5518 40.0791 87.7861 40.0791H92.9658V37.2402C92.9658 32.293 90.8242 29.8193 86.541 29.8193C82.5566 29.8193 80.5645 31.7783 80.5645 35.6963H63.7803C63.7803 30.4834 65.9883 26.25 70.4043 22.9961C74.8535 19.7422 80.5146 18.1152 87.3877 18.1152C94.2607 18.1152 99.6895 19.792 103.674 23.1455C107.658 26.499 109.7 31.0977 109.8 36.9414V60.7979C109.866 65.7451 110.63 69.5303 112.091 72.1533V73H95.3066ZM84.7979 62.043C86.8896 62.043 88.6162 61.5947 89.9775 60.6982C91.3721 59.8018 92.3682 58.7891 92.9658 57.6602V49.0439H88.085C82.2412 49.0439 79.3193 51.667 79.3193 56.9131C79.3193 58.4404 79.834 59.6855 80.8633 60.6484C81.8926 61.5781 83.2041 62.043 84.7979 62.043ZM169.167 46.4541C169.167 54.8213 167.274 61.5117 163.489 66.5254C159.737 71.5059 154.657 73.9961 148.249 73.9961C143.302 73.9961 139.234 72.1865 136.047 68.5674V93.7188H119.263V19.1113H134.951L135.449 24.0918C138.67 20.1074 142.903 18.1152 148.149 18.1152C154.79 18.1152 159.953 20.5723 163.639 25.4863C167.324 30.3672 169.167 37.0908 169.167 45.6572V46.4541ZM152.383 45.4082C152.383 35.8457 149.594 31.0645 144.016 31.0645C140.031 31.0645 137.375 32.4922 136.047 35.3477V56.5645C137.508 59.5527 140.197 61.0469 144.115 61.0469C149.461 61.0469 152.217 56.4316 152.383 47.2012V45.4082ZM208.712 67.1729C205.159 71.7217 200.361 73.9961 194.318 73.9961C188.408 73.9961 183.926 72.2861 180.871 68.8662C177.85 65.4131 176.339 60.4658 176.339 54.0244V19.1113H193.123V54.124C193.123 58.7393 195.364 61.0469 199.847 61.0469C203.698 61.0469 206.438 59.6689 208.064 56.9131V19.1113H224.948V73H209.21L208.712 67.1729ZM262.401 57.8594C262.401 56.4316 261.654 55.2861 260.16 54.4229C258.666 53.5596 255.827 52.6631 251.644 51.7334C247.46 50.8037 244.007 49.5918 241.284 48.0977C238.562 46.5703 236.486 44.7275 235.059 42.5693C233.631 40.4111 232.917 37.9375 232.917 35.1484C232.917 30.2012 234.959 26.1338 239.043 22.9463C243.127 19.7256 248.473 18.1152 255.08 18.1152C262.186 18.1152 267.896 19.7256 272.213 22.9463C276.529 26.167 278.688 30.4004 278.688 35.6465H261.854C261.854 31.3301 259.579 29.1719 255.03 29.1719C253.271 29.1719 251.793 29.6699 250.598 30.666C249.402 31.6289 248.805 32.8408 248.805 34.3018C248.805 35.7959 249.535 37.0078 250.996 37.9375C252.457 38.8672 254.781 39.6309 257.969 40.2285C261.189 40.8262 264.012 41.54 266.436 42.3701C274.537 45.1592 278.588 50.1562 278.588 57.3613C278.588 62.2754 276.396 66.2764 272.014 69.3643C267.664 72.4521 262.02 73.9961 255.08 73.9961C250.465 73.9961 246.348 73.166 242.729 71.5059C239.109 69.8457 236.287 67.5879 234.262 64.7324C232.236 61.877 231.224 58.8721 231.224 55.7178H246.912C246.979 58.208 247.809 60.0342 249.402 61.1963C250.996 62.3252 253.038 62.8896 255.528 62.8896C257.819 62.8896 259.529 62.4248 260.658 61.4951C261.82 60.5654 262.401 59.3535 262.401 57.8594ZM306.03 5.71387V19.1113H314.896V30.7656H306.03V55.4189C306.03 57.4443 306.396 58.8555 307.126 59.6523C307.856 60.4492 309.301 60.8477 311.459 60.8477C313.119 60.8477 314.514 60.748 315.643 60.5488V72.5518C312.621 73.5146 309.467 73.9961 306.18 73.9961C300.402 73.9961 296.136 72.6348 293.38 69.9121C290.624 67.1895 289.246 63.0557 289.246 57.5107V30.7656H282.373V19.1113H289.246V5.71387H306.03ZM351.9 73C351.303 71.9043 350.771 70.2939 350.307 68.1689C347.219 72.0537 342.902 73.9961 337.357 73.9961C332.277 73.9961 327.961 72.4688 324.408 69.4141C320.855 66.3262 319.079 62.458 319.079 57.8096C319.079 51.9658 321.237 47.5498 325.554 44.5615C329.87 41.5732 336.146 40.0791 344.38 40.0791H349.56V37.2402C349.56 32.293 347.418 29.8193 343.135 29.8193C339.15 29.8193 337.158 31.7783 337.158 35.6963H320.374C320.374 30.4834 322.582 26.25 326.998 22.9961C331.447 19.7422 337.108 18.1152 343.981 18.1152C350.854 18.1152 356.283 19.792 360.268 23.1455C364.252 26.499 366.294 31.0977 366.394 36.9414V60.7979C366.46 65.7451 367.224 69.5303 368.685 72.1533V73H351.9ZM341.392 62.043C343.483 62.043 345.21 61.5947 346.571 60.6982C347.966 59.8018 348.962 58.7891 349.56 57.6602V49.0439H344.679C338.835 49.0439 335.913 51.667 335.913 56.9131C335.913 58.4404 336.428 59.6855 337.457 60.6484C338.486 61.5781 339.798 62.043 341.392 62.043Z" fill="black"/>
</svg>
