<svg width="412" height="283" viewBox="0 0 412 283" fill="none" xmlns="http://www.w3.org/2000/svg">
<g filter="url(#filter0_d_5_129)">
<path fill-rule="evenodd" clip-rule="evenodd" d="M133.908 61L122 50L110.092 61H90C73.4315 61 60 74.4315 60 91V183C60 199.569 73.4315 213 90 213H322C338.569 213 352 199.569 352 183V91C352 74.4315 338.569 61 322 61H133.908Z" fill="url(#paint0_linear_5_129)"/>
</g>
<path d="M98.7568 106H97.4375V97.127H92.5293V106H91.2168V96.0469H98.7568V106ZM107.199 102.384C107.199 103.509 106.942 104.416 106.427 105.104C105.912 105.793 105.215 106.137 104.335 106.137C103.437 106.137 102.731 105.852 102.216 105.282V108.844H100.951V98.6035H102.106L102.168 99.4238C102.683 98.7858 103.398 98.4668 104.314 98.4668C105.203 98.4668 105.905 98.8018 106.42 99.4717C106.939 100.142 107.199 101.074 107.199 102.268V102.384ZM105.935 102.24C105.935 101.406 105.757 100.748 105.401 100.265C105.046 99.7816 104.558 99.54 103.938 99.54C103.173 99.54 102.599 99.8796 102.216 100.559V104.093C102.594 104.767 103.173 105.104 103.952 105.104C104.558 105.104 105.039 104.865 105.395 104.387C105.755 103.904 105.935 103.188 105.935 102.24ZM113.598 98.6035H114.862V106H113.598V100.606L110.187 106H108.922V98.6035H110.187V104.004L113.598 98.6035ZM117.009 106V98.6035H119.894C120.878 98.6035 121.632 98.7767 122.156 99.123C122.685 99.4648 122.949 99.9684 122.949 100.634C122.949 100.976 122.847 101.285 122.642 101.563C122.437 101.837 122.133 102.047 121.732 102.192C122.179 102.297 122.537 102.502 122.806 102.808C123.079 103.113 123.216 103.478 123.216 103.901C123.216 104.58 122.965 105.1 122.464 105.46C121.967 105.82 121.263 106 120.352 106H117.009ZM118.273 102.753V104.981H120.365C120.894 104.981 121.288 104.883 121.548 104.688C121.812 104.492 121.944 104.216 121.944 103.86C121.944 103.122 121.402 102.753 120.317 102.753H118.273ZM118.273 101.741H119.907C121.092 101.741 121.685 101.395 121.685 100.702C121.685 100.009 121.124 99.6517 120.003 99.6289H118.273V101.741ZM127.96 106.137C126.957 106.137 126.142 105.809 125.513 105.152C124.884 104.492 124.569 103.61 124.569 102.507V102.274C124.569 101.541 124.708 100.887 124.986 100.312C125.269 99.7337 125.661 99.2826 126.162 98.959C126.668 98.6309 127.215 98.4668 127.803 98.4668C128.764 98.4668 129.512 98.7835 130.045 99.417C130.578 100.05 130.845 100.957 130.845 102.138V102.664H125.834C125.852 103.393 126.064 103.983 126.47 104.435C126.88 104.881 127.399 105.104 128.028 105.104C128.475 105.104 128.853 105.013 129.163 104.831C129.473 104.649 129.744 104.407 129.977 104.106L130.749 104.708C130.129 105.66 129.2 106.137 127.96 106.137ZM127.803 99.5059C127.292 99.5059 126.864 99.6927 126.518 100.066C126.171 100.436 125.957 100.955 125.875 101.625H129.58V101.529C129.544 100.887 129.37 100.39 129.061 100.039C128.751 99.6836 128.331 99.5059 127.803 99.5059ZM137.729 99.6289H135.247V106H133.982V99.6289H131.549V98.6035H137.729V99.6289ZM140.374 103.19H139.232L139.144 96.0469H140.47L140.374 103.19ZM139.096 105.364C139.096 105.159 139.157 104.988 139.28 104.852C139.408 104.71 139.595 104.64 139.841 104.64C140.087 104.64 140.274 104.71 140.401 104.852C140.529 104.988 140.593 105.159 140.593 105.364C140.593 105.569 140.529 105.74 140.401 105.877C140.274 106.009 140.087 106.075 139.841 106.075C139.595 106.075 139.408 106.009 139.28 105.877C139.157 105.74 139.096 105.569 139.096 105.364ZM155.194 108.44H153.889V106H146.745V108.447H145.433L145.426 104.927H146.239C146.668 104.444 147.007 103.797 147.258 102.985C147.513 102.17 147.673 101.276 147.736 100.306L147.955 96.0469H153.909V104.927H155.208L155.194 108.44ZM147.736 104.927H152.59V97.127H149.22L149.076 100.053C149.017 101.197 148.864 102.172 148.618 102.979C148.377 103.785 148.083 104.435 147.736 104.927ZM162.741 98.6035V106H161.47V99.6494H158.954L158.804 102.418C158.722 103.689 158.507 104.599 158.161 105.146C157.819 105.692 157.275 105.977 156.527 106H156.021V104.886L156.384 104.858C156.794 104.813 157.088 104.576 157.266 104.147C157.443 103.719 157.557 102.926 157.607 101.769L157.744 98.6035H162.741ZM170.425 98.6035V106H169.153V103.122H167.246L165.503 106H164.136L165.995 102.931C165.521 102.757 165.157 102.491 164.901 102.131C164.651 101.766 164.525 101.342 164.525 100.859C164.525 100.185 164.778 99.6426 165.284 99.2324C165.79 98.8177 166.467 98.6081 167.314 98.6035H170.425ZM165.797 100.873C165.797 101.233 165.92 101.525 166.166 101.748C166.412 101.967 166.738 102.078 167.144 102.083H169.153V99.6289H167.335C166.866 99.6289 166.492 99.7451 166.214 99.9775C165.936 100.205 165.797 100.504 165.797 100.873ZM181.971 106H180.706V102.842H177.309V106H176.037V98.6035H177.309V101.81H180.706V98.6035H181.971V106ZM188.574 106C188.501 105.854 188.442 105.594 188.396 105.221C187.809 105.831 187.107 106.137 186.291 106.137C185.562 106.137 184.963 105.932 184.493 105.521C184.028 105.107 183.796 104.583 183.796 103.949C183.796 103.179 184.088 102.582 184.671 102.158C185.259 101.73 186.084 101.516 187.146 101.516H188.376V100.935C188.376 100.493 188.244 100.142 187.979 99.8818C187.715 99.6175 187.326 99.4854 186.811 99.4854C186.359 99.4854 185.981 99.5993 185.676 99.8271C185.37 100.055 185.218 100.331 185.218 100.654H183.946C183.946 100.285 184.076 99.9297 184.336 99.5879C184.6 99.2415 184.956 98.9681 185.402 98.7676C185.854 98.5671 186.348 98.4668 186.886 98.4668C187.738 98.4668 188.406 98.681 188.889 99.1094C189.372 99.5332 189.622 100.119 189.641 100.866V104.271C189.641 104.95 189.727 105.49 189.9 105.891V106H188.574ZM186.476 105.036C186.872 105.036 187.248 104.934 187.604 104.729C187.959 104.523 188.216 104.257 188.376 103.929V102.411H187.385C185.835 102.411 185.061 102.865 185.061 103.771C185.061 104.168 185.193 104.478 185.457 104.701C185.721 104.924 186.061 105.036 186.476 105.036ZM197.208 106H195.937V103.32C195.381 103.466 194.811 103.539 194.228 103.539C193.302 103.539 192.596 103.302 192.108 102.828C191.625 102.354 191.379 101.68 191.37 100.805V98.5967H192.635V100.846C192.658 101.949 193.188 102.5 194.228 102.5C194.811 102.5 195.381 102.427 195.937 102.281V98.6035H197.208V106ZM203.805 106C203.732 105.854 203.673 105.594 203.627 105.221C203.039 105.831 202.337 106.137 201.521 106.137C200.792 106.137 200.193 105.932 199.724 105.521C199.259 105.107 199.026 104.583 199.026 103.949C199.026 103.179 199.318 102.582 199.901 102.158C200.489 101.73 201.314 101.516 202.376 101.516H203.606V100.935C203.606 100.493 203.474 100.142 203.21 99.8818C202.946 99.6175 202.556 99.4854 202.041 99.4854C201.59 99.4854 201.212 99.5993 200.906 99.8271C200.601 100.055 200.448 100.331 200.448 100.654H199.177C199.177 100.285 199.307 99.9297 199.566 99.5879C199.831 99.2415 200.186 98.9681 200.633 98.7676C201.084 98.5671 201.578 98.4668 202.116 98.4668C202.968 98.4668 203.636 98.681 204.119 99.1094C204.602 99.5332 204.853 100.119 204.871 100.866V104.271C204.871 104.95 204.958 105.49 205.131 105.891V106H203.805ZM201.706 105.036C202.103 105.036 202.479 104.934 202.834 104.729C203.189 104.523 203.447 104.257 203.606 103.929V102.411H202.615C201.066 102.411 200.291 102.865 200.291 103.771C200.291 104.168 200.423 104.478 200.688 104.701C200.952 104.924 201.291 105.036 201.706 105.036ZM212.917 98.6035V106H211.646V99.6494H209.13L208.979 102.418C208.897 103.689 208.683 104.599 208.337 105.146C207.995 105.692 207.451 105.977 206.703 106H206.197V104.886L206.56 104.858C206.97 104.813 207.264 104.576 207.441 104.147C207.619 103.719 207.733 102.926 207.783 101.769L207.92 98.6035H212.917ZM219.514 106C219.441 105.854 219.382 105.594 219.336 105.221C218.748 105.831 218.046 106.137 217.23 106.137C216.501 106.137 215.902 105.932 215.433 105.521C214.968 105.107 214.735 104.583 214.735 103.949C214.735 103.179 215.027 102.582 215.61 102.158C216.198 101.73 217.023 101.516 218.085 101.516H219.315V100.935C219.315 100.493 219.183 100.142 218.919 99.8818C218.655 99.6175 218.265 99.4854 217.75 99.4854C217.299 99.4854 216.921 99.5993 216.615 99.8271C216.31 100.055 216.157 100.331 216.157 100.654H214.886C214.886 100.285 215.016 99.9297 215.275 99.5879C215.54 99.2415 215.895 98.9681 216.342 98.7676C216.793 98.5671 217.287 98.4668 217.825 98.4668C218.677 98.4668 219.345 98.681 219.828 99.1094C220.311 99.5332 220.562 100.119 220.58 100.866V104.271C220.58 104.95 220.667 105.49 220.84 105.891V106H219.514ZM217.415 105.036C217.812 105.036 218.188 104.934 218.543 104.729C218.898 104.523 219.156 104.257 219.315 103.929V102.411H218.324C216.775 102.411 216 102.865 216 103.771C216 104.168 216.132 104.478 216.396 104.701C216.661 104.924 217 105.036 217.415 105.036ZM232.283 102.384C232.283 103.509 232.026 104.416 231.511 105.104C230.996 105.793 230.299 106.137 229.419 106.137C228.521 106.137 227.815 105.852 227.3 105.282V108.844H226.035V98.6035H227.19L227.252 99.4238C227.767 98.7858 228.482 98.4668 229.398 98.4668C230.287 98.4668 230.989 98.8018 231.504 99.4717C232.023 100.142 232.283 101.074 232.283 102.268V102.384ZM231.019 102.24C231.019 101.406 230.841 100.748 230.485 100.265C230.13 99.7816 229.642 99.54 229.022 99.54C228.257 99.54 227.683 99.8796 227.3 100.559V104.093C227.678 104.767 228.257 105.104 229.036 105.104C229.642 105.104 230.123 104.865 230.479 104.387C230.839 103.904 231.019 103.188 231.019 102.24ZM238.463 106C238.39 105.854 238.331 105.594 238.285 105.221C237.697 105.831 236.995 106.137 236.18 106.137C235.451 106.137 234.851 105.932 234.382 105.521C233.917 105.107 233.685 104.583 233.685 103.949C233.685 103.179 233.976 102.582 234.56 102.158C235.147 101.73 235.972 101.516 237.034 101.516H238.265V100.935C238.265 100.493 238.132 100.142 237.868 99.8818C237.604 99.6175 237.214 99.4854 236.699 99.4854C236.248 99.4854 235.87 99.5993 235.564 99.8271C235.259 100.055 235.106 100.331 235.106 100.654H233.835C233.835 100.285 233.965 99.9297 234.225 99.5879C234.489 99.2415 234.844 98.9681 235.291 98.7676C235.742 98.5671 236.237 98.4668 236.774 98.4668C237.627 98.4668 238.294 98.681 238.777 99.1094C239.26 99.5332 239.511 100.119 239.529 100.866V104.271C239.529 104.95 239.616 105.49 239.789 105.891V106H238.463ZM236.364 105.036C236.761 105.036 237.137 104.934 237.492 104.729C237.848 104.523 238.105 104.257 238.265 103.929V102.411H237.273C235.724 102.411 234.949 102.865 234.949 103.771C234.949 104.168 235.081 104.478 235.346 104.701C235.61 104.924 235.95 105.036 236.364 105.036ZM244.759 99.0273C245.688 99.0273 246.431 99.3395 246.987 99.9639C247.548 100.584 247.828 101.402 247.828 102.418V102.534C247.828 103.231 247.694 103.856 247.425 104.407C247.156 104.954 246.769 105.38 246.263 105.686C245.761 105.986 245.183 106.137 244.526 106.137C243.533 106.137 242.733 105.806 242.127 105.146C241.521 104.48 241.218 103.589 241.218 102.473V101.857C241.218 100.303 241.505 99.0684 242.079 98.1523C242.658 97.2363 243.51 96.6781 244.636 96.4775C245.274 96.3636 245.704 96.2246 245.928 96.0605C246.151 95.8965 246.263 95.6709 246.263 95.3838H247.302C247.302 95.9535 247.172 96.3978 246.912 96.7168C246.657 97.0358 246.247 97.2614 245.682 97.3936L244.738 97.6055C243.986 97.7832 243.421 98.084 243.043 98.5078C242.669 98.9271 242.425 99.4876 242.312 100.189C242.981 99.4147 243.797 99.0273 244.759 99.0273ZM244.513 100.066C243.893 100.066 243.401 100.276 243.036 100.695C242.672 101.11 242.489 101.687 242.489 102.425V102.534C242.489 103.327 242.672 103.956 243.036 104.421C243.405 104.881 243.902 105.111 244.526 105.111C245.155 105.111 245.652 104.879 246.017 104.414C246.381 103.949 246.563 103.27 246.563 102.377C246.563 101.68 246.379 101.121 246.01 100.702C245.645 100.278 245.146 100.066 244.513 100.066ZM248.915 102.233C248.915 101.509 249.056 100.857 249.339 100.278C249.626 99.6995 250.022 99.2529 250.528 98.9385C251.039 98.624 251.62 98.4668 252.271 98.4668C253.279 98.4668 254.092 98.8154 254.712 99.5127C255.336 100.21 255.648 101.137 255.648 102.295V102.384C255.648 103.104 255.509 103.751 255.231 104.325C254.958 104.895 254.564 105.339 254.049 105.658C253.538 105.977 252.951 106.137 252.285 106.137C251.283 106.137 250.469 105.788 249.845 105.091C249.225 104.394 248.915 103.471 248.915 102.322V102.233ZM250.187 102.384C250.187 103.204 250.376 103.863 250.754 104.359C251.137 104.856 251.647 105.104 252.285 105.104C252.928 105.104 253.438 104.854 253.816 104.353C254.195 103.847 254.384 103.14 254.384 102.233C254.384 101.422 254.19 100.766 253.803 100.265C253.42 99.7588 252.91 99.5059 252.271 99.5059C251.647 99.5059 251.144 99.7542 250.761 100.251C250.378 100.748 250.187 101.459 250.187 102.384ZM262.58 99.6289H260.099V106H258.834V99.6289H256.4V98.6035H262.58V99.6289ZM265.191 101.153H267.112C267.951 101.162 268.614 101.381 269.102 101.81C269.589 102.238 269.833 102.819 269.833 103.553C269.833 104.291 269.582 104.883 269.081 105.33C268.58 105.777 267.905 106 267.058 106H263.927V98.6035H265.191V101.153ZM272.472 106H271.2V98.6035H272.472V106ZM265.191 102.186V104.968H267.071C267.545 104.968 267.912 104.847 268.172 104.605C268.432 104.359 268.562 104.024 268.562 103.601C268.562 103.19 268.434 102.855 268.179 102.596C267.928 102.331 267.575 102.195 267.119 102.186H265.191ZM278.269 106V98.6035H281.153C282.138 98.6035 282.892 98.7767 283.416 99.123C283.945 99.4648 284.209 99.9684 284.209 100.634C284.209 100.976 284.106 101.285 283.901 101.563C283.696 101.837 283.393 102.047 282.992 102.192C283.439 102.297 283.797 102.502 284.065 102.808C284.339 103.113 284.476 103.478 284.476 103.901C284.476 104.58 284.225 105.1 283.724 105.46C283.227 105.82 282.523 106 281.611 106H278.269ZM279.533 102.753V104.981H281.625C282.154 104.981 282.548 104.883 282.808 104.688C283.072 104.492 283.204 104.216 283.204 103.86C283.204 103.122 282.662 102.753 281.577 102.753H279.533ZM279.533 101.741H281.167C282.352 101.741 282.944 101.395 282.944 100.702C282.944 100.009 282.384 99.6517 281.263 99.6289H279.533V101.741ZM292.193 106H290.929V102.842H287.531V106H286.26V98.6035H287.531V101.81H290.929V98.6035H292.193V106ZM297.3 106.137C296.297 106.137 295.481 105.809 294.853 105.152C294.224 104.492 293.909 103.61 293.909 102.507V102.274C293.909 101.541 294.048 100.887 294.326 100.312C294.609 99.7337 295.001 99.2826 295.502 98.959C296.008 98.6309 296.555 98.4668 297.143 98.4668C298.104 98.4668 298.852 98.7835 299.385 99.417C299.918 100.05 300.185 100.957 300.185 102.138V102.664H295.174C295.192 103.393 295.404 103.983 295.81 104.435C296.22 104.881 296.739 105.104 297.368 105.104C297.815 105.104 298.193 105.013 298.503 104.831C298.813 104.649 299.084 104.407 299.316 104.106L300.089 104.708C299.469 105.66 298.539 106.137 297.3 106.137ZM297.143 99.5059C296.632 99.5059 296.204 99.6927 295.857 100.066C295.511 100.436 295.297 100.955 295.215 101.625H298.92V101.529C298.883 100.887 298.71 100.39 298.4 100.039C298.09 99.6836 297.671 99.5059 297.143 99.5059ZM304.621 105.104C305.072 105.104 305.466 104.968 305.804 104.694C306.141 104.421 306.328 104.079 306.364 103.669H307.561C307.538 104.093 307.392 104.496 307.123 104.879C306.854 105.262 306.494 105.567 306.043 105.795C305.596 106.023 305.122 106.137 304.621 106.137C303.614 106.137 302.812 105.802 302.215 105.132C301.622 104.457 301.326 103.537 301.326 102.37V102.158C301.326 101.438 301.458 100.798 301.723 100.237C301.987 99.6768 302.365 99.2415 302.857 98.9316C303.354 98.6217 303.94 98.4668 304.614 98.4668C305.444 98.4668 306.132 98.7152 306.679 99.2119C307.23 99.7087 307.524 100.354 307.561 101.146H306.364C306.328 100.668 306.146 100.276 305.817 99.9707C305.494 99.6608 305.093 99.5059 304.614 99.5059C303.972 99.5059 303.473 99.7383 303.117 100.203C302.766 100.663 302.591 101.331 302.591 102.206V102.445C302.591 103.298 302.766 103.954 303.117 104.414C303.468 104.874 303.969 105.104 304.621 105.104ZM313.768 98.6035H315.032V106H313.768V100.606L310.356 106H309.092V98.6035H310.356V104.004L313.768 98.6035ZM96.4531 119.629H93.9717V126H92.707V119.629H90.2734V118.604H96.4531V119.629ZM100.206 126.137C99.2035 126.137 98.3877 125.809 97.7588 125.152C97.1299 124.492 96.8154 123.61 96.8154 122.507V122.274C96.8154 121.541 96.9544 120.887 97.2324 120.312C97.515 119.734 97.9069 119.283 98.4082 118.959C98.9141 118.631 99.4609 118.467 100.049 118.467C101.01 118.467 101.758 118.784 102.291 119.417C102.824 120.05 103.091 120.957 103.091 122.138V122.664H98.0801C98.0983 123.393 98.3102 123.983 98.7158 124.435C99.126 124.881 99.6455 125.104 100.274 125.104C100.721 125.104 101.099 125.013 101.409 124.831C101.719 124.649 101.99 124.407 102.223 124.106L102.995 124.708C102.375 125.66 101.446 126.137 100.206 126.137ZM100.049 119.506C99.5384 119.506 99.11 119.693 98.7637 120.066C98.4173 120.436 98.2031 120.955 98.1211 121.625H101.826V121.529C101.79 120.887 101.617 120.39 101.307 120.039C100.997 119.684 100.577 119.506 100.049 119.506ZM106.864 122.849H105.941V126H104.67V118.604H105.941V121.734H106.769L109.257 118.604H110.788L107.862 122.158L111.034 126H109.428L106.864 122.849ZM114.541 124.147L116.264 118.604H117.617L114.644 127.142C114.183 128.372 113.452 128.987 112.449 128.987L112.21 128.967L111.738 128.878V127.853L112.08 127.88C112.508 127.88 112.841 127.793 113.078 127.62C113.32 127.447 113.518 127.13 113.673 126.67L113.953 125.918L111.314 118.604H112.695L114.541 124.147ZM120.058 118.604V124.968H122.765V118.604H124.029V124.968H126.729V118.604H128.001V124.968H129.04L128.917 128.194H127.782V126H118.786V118.604H120.058ZM135.117 118.604H136.382V126H135.117V120.606L131.706 126H130.441V118.604H131.706V124.004L135.117 118.604ZM143.197 118.604H144.462V126H143.197V120.606L139.786 126H138.521V118.604H139.786V124.004L143.197 118.604ZM143.539 115.91C143.539 116.462 143.35 116.906 142.972 117.243C142.598 117.576 142.106 117.742 141.495 117.742C140.884 117.742 140.39 117.574 140.012 117.236C139.633 116.899 139.444 116.457 139.444 115.91H140.477C140.477 116.229 140.563 116.48 140.736 116.662C140.91 116.84 141.162 116.929 141.495 116.929C141.814 116.929 142.062 116.84 142.24 116.662C142.423 116.484 142.514 116.234 142.514 115.91H143.539ZM153.212 119.027C154.142 119.027 154.884 119.34 155.44 119.964C156.001 120.584 156.281 121.402 156.281 122.418V122.534C156.281 123.231 156.147 123.856 155.878 124.407C155.609 124.954 155.222 125.38 154.716 125.686C154.215 125.986 153.636 126.137 152.979 126.137C151.986 126.137 151.186 125.806 150.58 125.146C149.974 124.48 149.671 123.589 149.671 122.473V121.857C149.671 120.303 149.958 119.068 150.532 118.152C151.111 117.236 151.963 116.678 153.089 116.478C153.727 116.364 154.158 116.225 154.381 116.061C154.604 115.896 154.716 115.671 154.716 115.384H155.755C155.755 115.953 155.625 116.398 155.365 116.717C155.11 117.036 154.7 117.261 154.135 117.394L153.191 117.605C152.439 117.783 151.874 118.084 151.496 118.508C151.122 118.927 150.879 119.488 150.765 120.189C151.435 119.415 152.25 119.027 153.212 119.027ZM152.966 120.066C152.346 120.066 151.854 120.276 151.489 120.695C151.125 121.11 150.942 121.687 150.942 122.425V122.534C150.942 123.327 151.125 123.956 151.489 124.421C151.858 124.881 152.355 125.111 152.979 125.111C153.608 125.111 154.105 124.879 154.47 124.414C154.834 123.949 155.017 123.27 155.017 122.377C155.017 121.68 154.832 121.121 154.463 120.702C154.098 120.278 153.599 120.066 152.966 120.066ZM162.27 126C162.197 125.854 162.137 125.594 162.092 125.221C161.504 125.831 160.802 126.137 159.986 126.137C159.257 126.137 158.658 125.932 158.188 125.521C157.724 125.107 157.491 124.583 157.491 123.949C157.491 123.179 157.783 122.582 158.366 122.158C158.954 121.73 159.779 121.516 160.841 121.516H162.071V120.935C162.071 120.493 161.939 120.142 161.675 119.882C161.41 119.618 161.021 119.485 160.506 119.485C160.055 119.485 159.676 119.599 159.371 119.827C159.066 120.055 158.913 120.331 158.913 120.654H157.642C157.642 120.285 157.771 119.93 158.031 119.588C158.296 119.242 158.651 118.968 159.098 118.768C159.549 118.567 160.043 118.467 160.581 118.467C161.433 118.467 162.101 118.681 162.584 119.109C163.067 119.533 163.318 120.119 163.336 120.866V124.271C163.336 124.95 163.423 125.49 163.596 125.891V126H162.27ZM160.171 125.036C160.567 125.036 160.943 124.934 161.299 124.729C161.654 124.523 161.912 124.257 162.071 123.929V122.411H161.08C159.531 122.411 158.756 122.865 158.756 123.771C158.756 124.168 158.888 124.478 159.152 124.701C159.417 124.924 159.756 125.036 160.171 125.036ZM171.382 118.604V126H170.11V119.649H167.595L167.444 122.418C167.362 123.689 167.148 124.599 166.802 125.146C166.46 125.692 165.915 125.977 165.168 126H164.662V124.886L165.024 124.858C165.435 124.813 165.729 124.576 165.906 124.147C166.084 123.719 166.198 122.926 166.248 121.769L166.385 118.604H171.382ZM177.979 126C177.906 125.854 177.846 125.594 177.801 125.221C177.213 125.831 176.511 126.137 175.695 126.137C174.966 126.137 174.367 125.932 173.897 125.521C173.433 125.107 173.2 124.583 173.2 123.949C173.2 123.179 173.492 122.582 174.075 122.158C174.663 121.73 175.488 121.516 176.55 121.516H177.78V120.935C177.78 120.493 177.648 120.142 177.384 119.882C177.119 119.618 176.73 119.485 176.215 119.485C175.764 119.485 175.385 119.599 175.08 119.827C174.775 120.055 174.622 120.331 174.622 120.654H173.351C173.351 120.285 173.48 119.93 173.74 119.588C174.005 119.242 174.36 118.968 174.807 118.768C175.258 118.567 175.752 118.467 176.29 118.467C177.142 118.467 177.81 118.681 178.293 119.109C178.776 119.533 179.027 120.119 179.045 120.866V124.271C179.045 124.95 179.132 125.49 179.305 125.891V126H177.979ZM175.88 125.036C176.276 125.036 176.652 124.934 177.008 124.729C177.363 124.523 177.621 124.257 177.78 123.929V122.411H176.789C175.24 122.411 174.465 122.865 174.465 123.771C174.465 124.168 174.597 124.478 174.861 124.701C175.126 124.924 175.465 125.036 175.88 125.036ZM187.07 126H185.806V122.842H182.408V126H181.137V118.604H182.408V121.81H185.806V118.604H187.07V126ZM192.074 125.104C192.525 125.104 192.92 124.968 193.257 124.694C193.594 124.421 193.781 124.079 193.817 123.669H195.014C194.991 124.093 194.845 124.496 194.576 124.879C194.307 125.262 193.947 125.567 193.496 125.795C193.049 126.023 192.576 126.137 192.074 126.137C191.067 126.137 190.265 125.802 189.668 125.132C189.076 124.457 188.779 123.537 188.779 122.37V122.158C188.779 121.438 188.911 120.798 189.176 120.237C189.44 119.677 189.818 119.242 190.311 118.932C190.807 118.622 191.393 118.467 192.067 118.467C192.897 118.467 193.585 118.715 194.132 119.212C194.683 119.709 194.977 120.354 195.014 121.146H193.817C193.781 120.668 193.599 120.276 193.271 119.971C192.947 119.661 192.546 119.506 192.067 119.506C191.425 119.506 190.926 119.738 190.57 120.203C190.219 120.663 190.044 121.331 190.044 122.206V122.445C190.044 123.298 190.219 123.954 190.57 124.414C190.921 124.874 191.423 125.104 192.074 125.104ZM202.875 125.104C203.326 125.104 203.72 124.968 204.058 124.694C204.395 124.421 204.582 124.079 204.618 123.669H205.814C205.792 124.093 205.646 124.496 205.377 124.879C205.108 125.262 204.748 125.567 204.297 125.795C203.85 126.023 203.376 126.137 202.875 126.137C201.868 126.137 201.066 125.802 200.469 125.132C199.876 124.457 199.58 123.537 199.58 122.37V122.158C199.58 121.438 199.712 120.798 199.977 120.237C200.241 119.677 200.619 119.242 201.111 118.932C201.608 118.622 202.194 118.467 202.868 118.467C203.698 118.467 204.386 118.715 204.933 119.212C205.484 119.709 205.778 120.354 205.814 121.146H204.618C204.582 120.668 204.399 120.276 204.071 119.971C203.748 119.661 203.347 119.506 202.868 119.506C202.226 119.506 201.727 119.738 201.371 120.203C201.02 120.663 200.845 121.331 200.845 122.206V122.445C200.845 123.298 201.02 123.954 201.371 124.414C201.722 124.874 202.223 125.104 202.875 125.104ZM207.353 126V118.604H210.237C211.222 118.604 211.976 118.777 212.5 119.123C213.029 119.465 213.293 119.968 213.293 120.634C213.293 120.976 213.19 121.285 212.985 121.563C212.78 121.837 212.477 122.047 212.076 122.192C212.523 122.297 212.881 122.502 213.149 122.808C213.423 123.113 213.56 123.478 213.56 123.901C213.56 124.58 213.309 125.1 212.808 125.46C212.311 125.82 211.607 126 210.695 126H207.353ZM208.617 122.753V124.981H210.709C211.238 124.981 211.632 124.883 211.892 124.688C212.156 124.492 212.288 124.216 212.288 123.86C212.288 123.122 211.746 122.753 210.661 122.753H208.617ZM208.617 121.741H210.251C211.436 121.741 212.028 121.395 212.028 120.702C212.028 120.009 211.468 119.652 210.347 119.629H208.617V121.741ZM214.899 122.233C214.899 121.509 215.041 120.857 215.323 120.278C215.61 119.7 216.007 119.253 216.513 118.938C217.023 118.624 217.604 118.467 218.256 118.467C219.263 118.467 220.076 118.815 220.696 119.513C221.321 120.21 221.633 121.137 221.633 122.295V122.384C221.633 123.104 221.494 123.751 221.216 124.325C220.942 124.895 220.548 125.339 220.033 125.658C219.523 125.977 218.935 126.137 218.27 126.137C217.267 126.137 216.453 125.788 215.829 125.091C215.209 124.394 214.899 123.471 214.899 122.322V122.233ZM216.171 122.384C216.171 123.204 216.36 123.863 216.738 124.359C217.121 124.856 217.632 125.104 218.27 125.104C218.912 125.104 219.423 124.854 219.801 124.353C220.179 123.847 220.368 123.14 220.368 122.233C220.368 121.422 220.174 120.766 219.787 120.265C219.404 119.759 218.894 119.506 218.256 119.506C217.632 119.506 217.128 119.754 216.745 120.251C216.362 120.748 216.171 121.459 216.171 122.384ZM226.288 126.137C225.285 126.137 224.47 125.809 223.841 125.152C223.212 124.492 222.897 123.61 222.897 122.507V122.274C222.897 121.541 223.036 120.887 223.314 120.312C223.597 119.734 223.989 119.283 224.49 118.959C224.996 118.631 225.543 118.467 226.131 118.467C227.092 118.467 227.84 118.784 228.373 119.417C228.906 120.05 229.173 120.957 229.173 122.138V122.664H224.162C224.18 123.393 224.392 123.983 224.798 124.435C225.208 124.881 225.728 125.104 226.356 125.104C226.803 125.104 227.181 125.013 227.491 124.831C227.801 124.649 228.072 124.407 228.305 124.106L229.077 124.708C228.457 125.66 227.528 126.137 226.288 126.137ZM226.131 119.506C225.62 119.506 225.192 119.693 224.846 120.066C224.499 120.436 224.285 120.955 224.203 121.625H227.908V121.529C227.872 120.887 227.699 120.39 227.389 120.039C227.079 119.684 226.66 119.506 226.131 119.506ZM235.421 119.649H232.01V126H230.738V118.604H235.421V119.649ZM236.05 122.233C236.05 121.509 236.191 120.857 236.474 120.278C236.761 119.7 237.157 119.253 237.663 118.938C238.174 118.624 238.755 118.467 239.406 118.467C240.413 118.467 241.227 118.815 241.847 119.513C242.471 120.21 242.783 121.137 242.783 122.295V122.384C242.783 123.104 242.644 123.751 242.366 124.325C242.093 124.895 241.699 125.339 241.184 125.658C240.673 125.977 240.085 126.137 239.42 126.137C238.417 126.137 237.604 125.788 236.979 125.091C236.36 124.394 236.05 123.471 236.05 122.322V122.233ZM237.321 122.384C237.321 123.204 237.51 123.863 237.889 124.359C238.271 124.856 238.782 125.104 239.42 125.104C240.062 125.104 240.573 124.854 240.951 124.353C241.329 123.847 241.519 123.14 241.519 122.233C241.519 121.422 241.325 120.766 240.938 120.265C240.555 119.759 240.044 119.506 239.406 119.506C238.782 119.506 238.278 119.754 237.896 120.251C237.513 120.748 237.321 121.459 237.321 122.384ZM250.809 125.104C251.26 125.104 251.654 124.968 251.991 124.694C252.328 124.421 252.515 124.079 252.552 123.669H253.748C253.725 124.093 253.579 124.496 253.311 124.879C253.042 125.262 252.682 125.567 252.23 125.795C251.784 126.023 251.31 126.137 250.809 126.137C249.801 126.137 248.999 125.802 248.402 125.132C247.81 124.457 247.514 123.537 247.514 122.37V122.158C247.514 121.438 247.646 120.798 247.91 120.237C248.174 119.677 248.553 119.242 249.045 118.932C249.542 118.622 250.127 118.467 250.802 118.467C251.631 118.467 252.319 118.715 252.866 119.212C253.418 119.709 253.712 120.354 253.748 121.146H252.552C252.515 120.668 252.333 120.276 252.005 119.971C251.681 119.661 251.28 119.506 250.802 119.506C250.159 119.506 249.66 119.738 249.305 120.203C248.954 120.663 248.778 121.331 248.778 122.206V122.445C248.778 123.298 248.954 123.954 249.305 124.414C249.656 124.874 250.157 125.104 250.809 125.104ZM260.755 126H259.483V123.32C258.927 123.466 258.358 123.539 257.774 123.539C256.849 123.539 256.143 123.302 255.655 122.828C255.172 122.354 254.926 121.68 254.917 120.805V118.597H256.182V120.846C256.204 121.949 256.735 122.5 257.774 122.5C258.358 122.5 258.927 122.427 259.483 122.281V118.604H260.755V126ZM265.854 126.137C264.852 126.137 264.036 125.809 263.407 125.152C262.778 124.492 262.464 123.61 262.464 122.507V122.274C262.464 121.541 262.603 120.887 262.881 120.312C263.163 119.734 263.555 119.283 264.057 118.959C264.562 118.631 265.109 118.467 265.697 118.467C266.659 118.467 267.406 118.784 267.939 119.417C268.473 120.05 268.739 120.957 268.739 122.138V122.664H263.729C263.747 123.393 263.959 123.983 264.364 124.435C264.774 124.881 265.294 125.104 265.923 125.104C266.369 125.104 266.748 125.013 267.058 124.831C267.368 124.649 267.639 124.407 267.871 124.106L268.644 124.708C268.024 125.66 267.094 126.137 265.854 126.137ZM265.697 119.506C265.187 119.506 264.758 119.693 264.412 120.066C264.066 120.436 263.852 120.955 263.77 121.625H267.475V121.529C267.438 120.887 267.265 120.39 266.955 120.039C266.645 119.684 266.226 119.506 265.697 119.506ZM275.623 119.629H273.142V126H271.877V119.629H269.443V118.604H275.623V119.629ZM281.311 126C281.238 125.854 281.178 125.594 281.133 125.221C280.545 125.831 279.843 126.137 279.027 126.137C278.298 126.137 277.699 125.932 277.229 125.521C276.765 125.107 276.532 124.583 276.532 123.949C276.532 123.179 276.824 122.582 277.407 122.158C277.995 121.73 278.82 121.516 279.882 121.516H281.112V120.935C281.112 120.493 280.98 120.142 280.716 119.882C280.451 119.618 280.062 119.485 279.547 119.485C279.096 119.485 278.717 119.599 278.412 119.827C278.107 120.055 277.954 120.331 277.954 120.654H276.683C276.683 120.285 276.812 119.93 277.072 119.588C277.337 119.242 277.692 118.968 278.139 118.768C278.59 118.567 279.084 118.467 279.622 118.467C280.474 118.467 281.142 118.681 281.625 119.109C282.108 119.533 282.359 120.119 282.377 120.866V124.271C282.377 124.95 282.464 125.49 282.637 125.891V126H281.311ZM279.212 125.036C279.608 125.036 279.984 124.934 280.34 124.729C280.695 124.523 280.953 124.257 281.112 123.929V122.411H280.121C278.572 122.411 277.797 122.865 277.797 123.771C277.797 124.168 277.929 124.478 278.193 124.701C278.458 124.924 278.797 125.036 279.212 125.036ZM285.774 123.19H284.633L284.544 116.047H285.87L285.774 123.19ZM284.496 125.364C284.496 125.159 284.558 124.988 284.681 124.852C284.808 124.71 284.995 124.64 285.241 124.64C285.487 124.64 285.674 124.71 285.802 124.852C285.929 124.988 285.993 125.159 285.993 125.364C285.993 125.569 285.929 125.74 285.802 125.877C285.674 126.009 285.487 126.075 285.241 126.075C284.995 126.075 284.808 126.009 284.681 125.877C284.558 125.74 284.496 125.569 284.496 125.364Z" fill="white"/>
<path d="M96.8848 153.395H94.1426V161H93.0234V153.395H90.2871V152.469H96.8848V153.395ZM98.3906 156.846H100.037C100.756 156.854 101.324 157.041 101.742 157.408C102.16 157.775 102.369 158.273 102.369 158.902C102.369 159.535 102.154 160.043 101.725 160.426C101.295 160.809 100.717 161 99.9902 161H97.3066V154.66H98.3906V156.846ZM104.631 161H103.541V154.66H104.631V161ZM98.3906 157.73V160.115H100.002C100.408 160.115 100.723 160.012 100.945 159.805C101.168 159.594 101.279 159.307 101.279 158.943C101.279 158.592 101.17 158.305 100.951 158.082C100.736 157.855 100.434 157.738 100.043 157.73H98.3906ZM114.68 161H113.596V158.293H110.684V161H109.594V154.66H110.684V157.408H113.596V154.66H114.68V161ZM119.057 161.117C118.197 161.117 117.498 160.836 116.959 160.273C116.42 159.707 116.15 158.951 116.15 158.006V157.807C116.15 157.178 116.27 156.617 116.508 156.125C116.75 155.629 117.086 155.242 117.516 154.965C117.949 154.684 118.418 154.543 118.922 154.543C119.746 154.543 120.387 154.814 120.844 155.357C121.301 155.9 121.529 156.678 121.529 157.689V158.141H117.234C117.25 158.766 117.432 159.271 117.779 159.658C118.131 160.041 118.576 160.232 119.115 160.232C119.498 160.232 119.822 160.154 120.088 159.998C120.354 159.842 120.586 159.635 120.785 159.377L121.447 159.893C120.916 160.709 120.119 161.117 119.057 161.117ZM118.922 155.434C118.484 155.434 118.117 155.594 117.82 155.914C117.523 156.23 117.34 156.676 117.27 157.25H120.445V157.168C120.414 156.617 120.266 156.191 120 155.891C119.734 155.586 119.375 155.434 118.922 155.434ZM129.416 159.564L131.572 154.66H132.926V161H131.842V156.389L129.791 161H129.041L126.949 156.289V161H125.865V154.66H127.271L129.416 159.564ZM134.385 157.771C134.385 157.15 134.506 156.592 134.748 156.096C134.994 155.6 135.334 155.217 135.768 154.947C136.205 154.678 136.703 154.543 137.262 154.543C138.125 154.543 138.822 154.842 139.354 155.439C139.889 156.037 140.156 156.832 140.156 157.824V157.9C140.156 158.518 140.037 159.072 139.799 159.564C139.564 160.053 139.227 160.434 138.785 160.707C138.348 160.98 137.844 161.117 137.273 161.117C136.414 161.117 135.717 160.818 135.182 160.221C134.65 159.623 134.385 158.832 134.385 157.848V157.771ZM135.475 157.9C135.475 158.604 135.637 159.168 135.961 159.594C136.289 160.02 136.727 160.232 137.273 160.232C137.824 160.232 138.262 160.018 138.586 159.588C138.91 159.154 139.072 158.549 139.072 157.771C139.072 157.076 138.906 156.514 138.574 156.084C138.246 155.65 137.809 155.434 137.262 155.434C136.727 155.434 136.295 155.646 135.967 156.072C135.639 156.498 135.475 157.107 135.475 157.9ZM146.443 158.246H145.682V161H144.598V158.246H143.836L142.061 161H140.689L142.957 157.719L140.906 154.66H142.219L143.854 157.285H144.598V154.66H145.682V157.285H146.42L148.066 154.66H149.379L147.322 157.725L149.59 161H148.219L146.443 158.246ZM153.088 161.117C152.229 161.117 151.529 160.836 150.99 160.273C150.451 159.707 150.182 158.951 150.182 158.006V157.807C150.182 157.178 150.301 156.617 150.539 156.125C150.781 155.629 151.117 155.242 151.547 154.965C151.98 154.684 152.449 154.543 152.953 154.543C153.777 154.543 154.418 154.814 154.875 155.357C155.332 155.9 155.561 156.678 155.561 157.689V158.141H151.266C151.281 158.766 151.463 159.271 151.811 159.658C152.162 160.041 152.607 160.232 153.146 160.232C153.529 160.232 153.854 160.154 154.119 159.998C154.385 159.842 154.617 159.635 154.816 159.377L155.479 159.893C154.947 160.709 154.15 161.117 153.088 161.117ZM152.953 155.434C152.516 155.434 152.148 155.594 151.852 155.914C151.555 156.23 151.371 156.676 151.301 157.25H154.477V157.168C154.445 156.617 154.297 156.191 154.031 155.891C153.766 155.586 153.406 155.434 152.953 155.434ZM158.004 154.66V160.115H160.324V154.66H161.408V160.115H163.723V154.66H164.812V161H156.914V154.66H158.004ZM167.707 156.846H169.354C170.072 156.854 170.641 157.041 171.059 157.408C171.477 157.775 171.686 158.273 171.686 158.902C171.686 159.535 171.471 160.043 171.041 160.426C170.611 160.809 170.033 161 169.307 161H166.623V154.66H167.707V156.846ZM167.707 157.73V160.115H169.318C169.725 160.115 170.039 160.012 170.262 159.805C170.484 159.594 170.596 159.307 170.596 158.943C170.596 158.592 170.486 158.305 170.268 158.082C170.053 157.855 169.75 157.738 169.359 157.73H167.707ZM180.727 155.539H178.6V161H177.516V155.539H175.43V154.66H180.727V155.539ZM187.137 157.9C187.137 158.865 186.916 159.643 186.475 160.232C186.033 160.822 185.436 161.117 184.682 161.117C183.912 161.117 183.307 160.873 182.865 160.385V163.438H181.781V154.66H182.771L182.824 155.363C183.266 154.816 183.879 154.543 184.664 154.543C185.426 154.543 186.027 154.83 186.469 155.404C186.914 155.979 187.137 156.777 187.137 157.801V157.9ZM186.053 157.777C186.053 157.062 185.9 156.498 185.596 156.084C185.291 155.67 184.873 155.463 184.342 155.463C183.686 155.463 183.193 155.754 182.865 156.336V159.365C183.189 159.943 183.686 160.232 184.354 160.232C184.873 160.232 185.285 160.027 185.59 159.617C185.898 159.203 186.053 158.59 186.053 157.777ZM192.434 161C192.371 160.875 192.32 160.652 192.281 160.332C191.777 160.855 191.176 161.117 190.477 161.117C189.852 161.117 189.338 160.941 188.936 160.59C188.537 160.234 188.338 159.785 188.338 159.242C188.338 158.582 188.588 158.07 189.088 157.707C189.592 157.34 190.299 157.156 191.209 157.156H192.264V156.658C192.264 156.279 192.15 155.979 191.924 155.756C191.697 155.529 191.363 155.416 190.922 155.416C190.535 155.416 190.211 155.514 189.949 155.709C189.688 155.904 189.557 156.141 189.557 156.418H188.467C188.467 156.102 188.578 155.797 188.801 155.504C189.027 155.207 189.332 154.973 189.715 154.801C190.102 154.629 190.525 154.543 190.986 154.543C191.717 154.543 192.289 154.727 192.703 155.094C193.117 155.457 193.332 155.959 193.348 156.6V159.518C193.348 160.1 193.422 160.562 193.57 160.906V161H192.434ZM190.635 160.174C190.975 160.174 191.297 160.086 191.602 159.91C191.906 159.734 192.127 159.506 192.264 159.225V157.924H191.414C190.086 157.924 189.422 158.312 189.422 159.09C189.422 159.43 189.535 159.695 189.762 159.887C189.988 160.078 190.279 160.174 190.635 160.174ZM199.664 155.539H197.537V161H196.453V155.539H194.367V154.66H199.664V155.539ZM204.82 154.66H205.904V161H204.82V156.377L201.896 161H200.812V154.66H201.896V159.289L204.82 154.66ZM212.355 155.539H210.229V161H209.145V155.539H207.059V154.66H212.355V155.539ZM214.594 156.846H216.24C216.959 156.854 217.527 157.041 217.945 157.408C218.363 157.775 218.572 158.273 218.572 158.902C218.572 159.535 218.357 160.043 217.928 160.426C217.498 160.809 216.92 161 216.193 161H213.51V154.66H214.594V156.846ZM214.594 157.73V160.115H216.205C216.611 160.115 216.926 160.012 217.148 159.805C217.371 159.594 217.482 159.307 217.482 158.943C217.482 158.592 217.373 158.305 217.154 158.082C216.939 157.855 216.637 157.738 216.246 157.73H214.594ZM222.85 160.115L223.225 159.652C223.646 159.105 223.887 158.285 223.945 157.191L224.045 154.66H228.129V160.115H228.943V162.863H227.859V161H223.436V162.863H222.352L222.357 160.115H222.85ZM224.133 160.115H227.045V155.662H225.094L225.029 157.174C224.963 158.436 224.664 159.416 224.133 160.115ZM232.775 161.117C231.916 161.117 231.217 160.836 230.678 160.273C230.139 159.707 229.869 158.951 229.869 158.006V157.807C229.869 157.178 229.988 156.617 230.227 156.125C230.469 155.629 230.805 155.242 231.234 154.965C231.668 154.684 232.137 154.543 232.641 154.543C233.465 154.543 234.105 154.814 234.562 155.357C235.02 155.9 235.248 156.678 235.248 157.689V158.141H230.953C230.969 158.766 231.15 159.271 231.498 159.658C231.85 160.041 232.295 160.232 232.834 160.232C233.217 160.232 233.541 160.154 233.807 159.998C234.072 159.842 234.305 159.635 234.504 159.377L235.166 159.893C234.635 160.709 233.838 161.117 232.775 161.117ZM232.641 155.434C232.203 155.434 231.836 155.594 231.539 155.914C231.242 156.23 231.059 156.676 230.988 157.25H234.164V157.168C234.133 156.617 233.984 156.191 233.719 155.891C233.453 155.586 233.094 155.434 232.641 155.434ZM241.688 161H240.604V158.293H237.691V161H236.602V154.66H237.691V157.408H240.604V154.66H241.688V161ZM244.617 156.846H246.264C246.982 156.854 247.551 157.041 247.969 157.408C248.387 157.775 248.596 158.273 248.596 158.902C248.596 159.535 248.381 160.043 247.951 160.426C247.521 160.809 246.943 161 246.217 161H243.533V154.66H244.617V156.846ZM244.617 157.73V160.115H246.229C246.635 160.115 246.949 160.012 247.172 159.805C247.395 159.594 247.506 159.307 247.506 158.943C247.506 158.592 247.396 158.305 247.178 158.082C246.963 157.855 246.66 157.738 246.27 157.73H244.617ZM254.045 155.557H251.121V161H250.031V154.66H254.045V155.557ZM259.09 154.66H260.174V161H259.09V156.377L256.166 161H255.082V154.66H256.166V159.289L259.09 154.66ZM270.076 161H268.992V155.557H266.074V161H264.984V154.66H270.076V161ZM271.529 157.771C271.529 157.15 271.65 156.592 271.893 156.096C272.139 155.6 272.479 155.217 272.912 154.947C273.35 154.678 273.848 154.543 274.406 154.543C275.27 154.543 275.967 154.842 276.498 155.439C277.033 156.037 277.301 156.832 277.301 157.824V157.9C277.301 158.518 277.182 159.072 276.943 159.564C276.709 160.053 276.371 160.434 275.93 160.707C275.492 160.98 274.988 161.117 274.418 161.117C273.559 161.117 272.861 160.818 272.326 160.221C271.795 159.623 271.529 158.832 271.529 157.848V157.771ZM272.619 157.9C272.619 158.604 272.781 159.168 273.105 159.594C273.434 160.02 273.871 160.232 274.418 160.232C274.969 160.232 275.406 160.018 275.73 159.588C276.055 159.154 276.217 158.549 276.217 157.771C276.217 157.076 276.051 156.514 275.719 156.084C275.391 155.65 274.953 155.434 274.406 155.434C273.871 155.434 273.439 155.646 273.111 156.072C272.783 156.498 272.619 157.107 272.619 157.9ZM280.635 158.299H279.844V161H278.754V154.66H279.844V157.344H280.553L282.686 154.66H283.998L281.49 157.707L284.209 161H282.832L280.635 158.299ZM289.055 161C288.992 160.875 288.941 160.652 288.902 160.332C288.398 160.855 287.797 161.117 287.098 161.117C286.473 161.117 285.959 160.941 285.557 160.59C285.158 160.234 284.959 159.785 284.959 159.242C284.959 158.582 285.209 158.07 285.709 157.707C286.213 157.34 286.92 157.156 287.83 157.156H288.885V156.658C288.885 156.279 288.771 155.979 288.545 155.756C288.318 155.529 287.984 155.416 287.543 155.416C287.156 155.416 286.832 155.514 286.57 155.709C286.309 155.904 286.178 156.141 286.178 156.418H285.088C285.088 156.102 285.199 155.797 285.422 155.504C285.648 155.207 285.953 154.973 286.336 154.801C286.723 154.629 287.146 154.543 287.607 154.543C288.338 154.543 288.91 154.727 289.324 155.094C289.738 155.457 289.953 155.959 289.969 156.6V159.518C289.969 160.1 290.043 160.562 290.191 160.906V161H289.055ZM287.256 160.174C287.596 160.174 287.918 160.086 288.223 159.91C288.527 159.734 288.748 159.506 288.885 159.225V157.924H288.035C286.707 157.924 286.043 158.312 286.043 159.09C286.043 159.43 286.156 159.695 286.383 159.887C286.609 160.078 286.9 160.174 287.256 160.174ZM298.746 154.66H299.83V161H298.746V156.377L295.822 161H294.738V154.66H295.822V159.289L298.746 154.66ZM303.697 156.975L305.104 154.66H306.369L304.295 157.795L306.434 161H305.18L303.715 158.627L302.25 161H300.99L303.129 157.795L301.055 154.66H302.309L303.697 156.975ZM312.574 159.412L314.051 154.66H315.211L312.662 161.979C312.268 163.033 311.641 163.561 310.781 163.561L310.576 163.543L310.172 163.467V162.588L310.465 162.611C310.832 162.611 311.117 162.537 311.32 162.389C311.527 162.24 311.697 161.969 311.83 161.574L312.07 160.93L309.809 154.66H310.992L312.574 159.412ZM95.5312 171.539H93.4043V177H92.3203V171.539H90.2344V170.66H95.5312V171.539ZM98.748 177.117C97.8887 177.117 97.1895 176.836 96.6504 176.273C96.1113 175.707 95.8418 174.951 95.8418 174.006V173.807C95.8418 173.178 95.9609 172.617 96.1992 172.125C96.4414 171.629 96.7773 171.242 97.207 170.965C97.6406 170.684 98.1094 170.543 98.6133 170.543C99.4375 170.543 100.078 170.814 100.535 171.357C100.992 171.9 101.221 172.678 101.221 173.689V174.141H96.9258C96.9414 174.766 97.123 175.271 97.4707 175.658C97.8223 176.041 98.2676 176.232 98.8066 176.232C99.1895 176.232 99.5137 176.154 99.7793 175.998C100.045 175.842 100.277 175.635 100.477 175.377L101.139 175.893C100.607 176.709 99.8105 177.117 98.748 177.117ZM98.6133 171.434C98.1758 171.434 97.8086 171.594 97.5117 171.914C97.2148 172.23 97.0312 172.676 96.9609 173.25H100.137V173.168C100.105 172.617 99.957 172.191 99.6914 171.891C99.4258 171.586 99.0664 171.434 98.6133 171.434ZM105.264 171.023C106.061 171.023 106.697 171.291 107.174 171.826C107.654 172.357 107.895 173.059 107.895 173.93V174.029C107.895 174.627 107.779 175.162 107.549 175.635C107.318 176.104 106.986 176.469 106.553 176.73C106.123 176.988 105.627 177.117 105.064 177.117C104.213 177.117 103.527 176.834 103.008 176.268C102.488 175.697 102.229 174.934 102.229 173.977V173.449C102.229 172.117 102.475 171.059 102.967 170.273C103.463 169.488 104.193 169.01 105.158 168.838C105.705 168.74 106.074 168.621 106.266 168.48C106.457 168.34 106.553 168.146 106.553 167.9H107.443C107.443 168.389 107.332 168.77 107.109 169.043C106.891 169.316 106.539 169.51 106.055 169.623L105.246 169.805C104.602 169.957 104.117 170.215 103.793 170.578C103.473 170.938 103.264 171.418 103.166 172.02C103.74 171.355 104.439 171.023 105.264 171.023ZM105.053 171.914C104.521 171.914 104.1 172.094 103.787 172.453C103.475 172.809 103.318 173.303 103.318 173.936V174.029C103.318 174.709 103.475 175.248 103.787 175.646C104.104 176.041 104.529 176.238 105.064 176.238C105.604 176.238 106.029 176.039 106.342 175.641C106.654 175.242 106.811 174.66 106.811 173.895C106.811 173.297 106.652 172.818 106.336 172.459C106.023 172.096 105.596 171.914 105.053 171.914ZM113.959 170.66V177H112.869V174.533H111.234L109.74 177H108.568L110.162 174.369C109.756 174.221 109.443 173.992 109.225 173.684C109.01 173.371 108.902 173.008 108.902 172.594C108.902 172.016 109.119 171.551 109.553 171.199C109.986 170.844 110.566 170.664 111.293 170.66H113.959ZM109.992 172.605C109.992 172.914 110.098 173.164 110.309 173.355C110.52 173.543 110.799 173.639 111.146 173.643H112.869V171.539H111.311C110.908 171.539 110.588 171.639 110.35 171.838C110.111 172.033 109.992 172.289 109.992 172.605ZM123.855 177H122.771V174.293H119.859V177H118.77V170.66H119.859V173.408H122.771V170.66H123.855V177ZM128.232 177.117C127.373 177.117 126.674 176.836 126.135 176.273C125.596 175.707 125.326 174.951 125.326 174.006V173.807C125.326 173.178 125.445 172.617 125.684 172.125C125.926 171.629 126.262 171.242 126.691 170.965C127.125 170.684 127.594 170.543 128.098 170.543C128.922 170.543 129.562 170.814 130.02 171.357C130.477 171.9 130.705 172.678 130.705 173.689V174.141H126.41C126.426 174.766 126.607 175.271 126.955 175.658C127.307 176.041 127.752 176.232 128.291 176.232C128.674 176.232 128.998 176.154 129.264 175.998C129.529 175.842 129.762 175.635 129.961 175.377L130.623 175.893C130.092 176.709 129.295 177.117 128.232 177.117ZM128.098 171.434C127.66 171.434 127.293 171.594 126.996 171.914C126.699 172.23 126.516 172.676 126.445 173.25H129.621V173.168C129.59 172.617 129.441 172.191 129.176 171.891C128.91 171.586 128.551 171.434 128.098 171.434ZM136.605 171.539H134.479V177H133.395V171.539H131.309V170.66H136.605V171.539ZM140.602 176.432C140.602 176.244 140.656 176.088 140.766 175.963C140.879 175.838 141.047 175.775 141.27 175.775C141.492 175.775 141.66 175.838 141.773 175.963C141.891 176.088 141.949 176.244 141.949 176.432C141.949 176.611 141.891 176.762 141.773 176.883C141.66 177.004 141.492 177.064 141.27 177.064C141.047 177.064 140.879 177.004 140.766 176.883C140.656 176.762 140.602 176.611 140.602 176.432ZM140.607 171.258C140.607 171.07 140.662 170.914 140.771 170.789C140.885 170.664 141.053 170.602 141.275 170.602C141.498 170.602 141.666 170.664 141.779 170.789C141.896 170.914 141.955 171.07 141.955 171.258C141.955 171.438 141.896 171.588 141.779 171.709C141.666 171.83 141.498 171.891 141.275 171.891C141.053 171.891 140.885 171.83 140.771 171.709C140.662 171.588 140.607 171.438 140.607 171.258ZM146.045 173.596C146.045 174.467 145.93 175.303 145.699 176.104C145.473 176.9 145.123 177.637 144.65 178.312C144.182 178.988 143.689 179.469 143.174 179.754L142.945 179.092C143.547 178.631 144.029 177.916 144.393 176.947C144.76 175.975 144.947 174.896 144.955 173.713V173.525C144.955 172.705 144.869 171.943 144.697 171.24C144.525 170.533 144.285 169.9 143.977 169.342C143.672 168.783 143.328 168.348 142.945 168.035L143.174 167.373C143.689 167.658 144.18 168.135 144.645 168.803C145.113 169.471 145.463 170.207 145.693 171.012C145.928 171.816 146.045 172.678 146.045 173.596Z" fill="white"/>
<defs>
<filter id="filter0_d_5_129" x="0" y="0" width="412" height="283" filterUnits="userSpaceOnUse" color-interpolation-filters="sRGB">
<feFlood flood-opacity="0" result="BackgroundImageFix"/>
<feColorMatrix in="SourceAlpha" type="matrix" values="0 0 0 0 0 0 0 0 0 0 0 0 0 0 0 0 0 0 127 0" result="hardAlpha"/>
<feOffset dy="10"/>
<feGaussianBlur stdDeviation="30"/>
<feColorMatrix type="matrix" values="0 0 0 0 0.666667 0 0 0 0 0.698039 0 0 0 0 0.772549 0 0 0 0.2 0"/>
<feBlend mode="normal" in2="BackgroundImageFix" result="effect1_dropShadow_5_129"/>
<feBlend mode="normal" in="SourceGraphic" in2="effect1_dropShadow_5_129" result="shape"/>
</filter>
<linearGradient id="paint0_linear_5_129" x1="69.637" y1="53.2171" x2="221.348" y2="196.781" gradientUnits="userSpaceOnUse">
<stop stop-color="#1D346A"/>
<stop offset="1" stop-color="#031634"/>
</linearGradient>
</defs>
</svg>
